<?xml version="1.0" encoding="utf-8"?>
<!-- Generator: Adobe Illustrator 15.0.0, SVG Export Plug-In . SVG Version: 6.00 Build 0)  -->
<!DOCTYPE svg PUBLIC "-//W3C//DTD SVG 1.1//EN" "http://www.w3.org/Graphics/SVG/1.1/DTD/svg11.dtd">
<svg version="1.1"
	 id="Layer_1" xmlns:inkscape="http://www.inkscape.org/namespaces/inkscape" xmlns:sodipodi="http://sodipodi.sourceforge.net/DTD/sodipodi-0.dtd" xmlns:rdf="http://www.w3.org/1999/02/22-rdf-syntax-ns#" xmlns:svg="http://www.w3.org/2000/svg" xmlns:cc="http://creativecommons.org/ns#" xmlns:dc="http://purl.org/dc/elements/1.1/"
	 xmlns="http://www.w3.org/2000/svg" xmlns:xlink="http://www.w3.org/1999/xlink" x="0px" y="0px" width="76.923px" height="50px"
	 viewBox="394.483 261.64 76.923 50" enable-background="new 394.483 261.64 76.923 50" xml:space="preserve">
<g transform="translate(0,-952.36218)">
	<path d="M400.253,1214.003c-1.134,0-2.175,0.341-3.065,0.901l32.933,28.756c1.739,1.521,3.846,1.52,5.589,0l32.991-28.786
		c-0.887-0.555-1.937-0.871-3.063-0.871H400.253z M394.814,1217.909c-0.2,0.586-0.331,1.207-0.331,1.863v38.461
		c0,3.195,2.573,5.77,5.771,5.77h65.384c3.194,0,5.769-2.573,5.769-5.77v-38.461c0-0.656-0.13-1.276-0.33-1.863l-32.843,28.666
		c-3.06,2.668-7.578,2.642-10.637-0.03L394.814,1217.909L394.814,1217.909z"/>
</g>
</svg>
