<?xml version="1.0" encoding="utf-8"?>
<!-- Generator: Adobe Illustrator 15.0.0, SVG Export Plug-In . SVG Version: 6.00 Build 0)  -->
<!DOCTYPE svg PUBLIC "-//W3C//DTD SVG 1.1//EN" "http://www.w3.org/Graphics/SVG/1.1/DTD/svg11.dtd">
<svg version="1.1" id="Layer_1" xmlns="http://www.w3.org/2000/svg" xmlns:xlink="http://www.w3.org/1999/xlink" x="0px" y="0px"
	 width="50.001px" height="50px" viewBox="395.947 254.339 50.001 50" enable-background="new 395.947 254.339 50.001 50"
	 xml:space="preserve">
<g>
	<circle cx="420.947" cy="279.339" r="6.494"/>
	<path d="M437.735,254.339h-33.578c-4.526,0-8.21,3.685-8.21,8.21v33.579c0,4.526,3.684,8.211,8.21,8.211h33.578
		c4.529,0,8.213-3.686,8.213-8.211v-33.579C445.948,258.023,442.264,254.339,437.735,254.339z M436.356,259.51
		c1.338,0,2.424,1.085,2.424,2.422c0,1.338-1.086,2.423-2.424,2.423c-1.336,0-2.422-1.085-2.422-2.423S435.02,259.51,436.356,259.51
		z M420.947,268.371c6.046,0,10.966,4.92,10.966,10.968c0,6.049-4.92,10.969-10.966,10.969c-6.048,0-10.968-4.92-10.968-10.969
		C409.979,273.291,414.898,268.371,420.947,268.371z M441.906,296.128c0,2.302-1.87,4.173-4.173,4.173h-33.578
		c-2.301,0-4.173-1.871-4.173-4.173v-24.507h8.103c-1.36,2.256-2.146,4.896-2.146,7.717c0,8.275,6.732,15.006,15.007,15.006
		c8.275,0,15.006-6.729,15.006-15.006c0-2.82-0.788-5.461-2.149-7.717h8.104V296.128z"/>
</g>
</svg>
