<?xml version="1.0" encoding="utf-8"?>
<!-- Generator: Adobe Illustrator 15.0.0, SVG Export Plug-In . SVG Version: 6.00 Build 0)  -->
<!DOCTYPE svg PUBLIC "-//W3C//DTD SVG 1.1//EN" "http://www.w3.org/Graphics/SVG/1.1/DTD/svg11.dtd">
<svg version="1.1" id="Layer_1" xmlns="http://www.w3.org/2000/svg" xmlns:xlink="http://www.w3.org/1999/xlink" x="0px" y="0px"
	 width="25.827px" height="30px" viewBox="4.304 0 25.827 30" enable-background="new 4.304 0 25.827 30" xml:space="preserve">
<g>
	<path d="M30.102,26.21L27.702,9.22c-0.222-1.642-1.642-2.842-3.284-2.842h-1.137V6.063C23.281,2.716,20.565,0,17.217,0
		c-3.346,0-6.063,2.716-6.063,6.063v0.315h-1.137c-1.642,0-3.063,1.23-3.283,2.842L4.334,26.21c-0.126,0.947,0.158,1.925,0.79,2.652
		c0.632,0.729,1.547,1.139,2.495,1.139h19.168c0.946,0,1.861-0.41,2.495-1.139C29.945,28.135,30.228,27.156,30.102,26.21z
		 M13.745,6.061c0-1.896,1.548-3.473,3.473-3.473c1.928,0,3.476,1.547,3.476,3.473v0.315h-6.949V6.061L13.745,6.061z M27.355,27.156
		c-0.094,0.095-0.253,0.252-0.536,0.252H7.618c-0.284,0-0.475-0.157-0.538-0.252c-0.092-0.094-0.22-0.283-0.155-0.568L9.324,9.597
		c0.063-0.346,0.347-0.631,0.727-0.631h14.367c0.348,0,0.662,0.252,0.727,0.631l2.399,16.991
		C27.577,26.872,27.45,27.061,27.355,27.156z"/>
	<path d="M21.417,11.335c-0.725,0-1.293,0.569-1.293,1.296c0,1.61-1.296,2.904-2.907,2.904c-1.609,0-2.905-1.294-2.905-2.904
		c0-0.727-0.568-1.296-1.295-1.296c-0.725,0-1.295,0.569-1.295,1.296c0,3.062,2.463,5.526,5.494,5.526
		c3.033,0,5.497-2.464,5.497-5.494C22.715,11.935,22.146,11.335,21.417,11.335z"/>
</g>
</svg>
