<?xml version="1.0" encoding="utf-8"?>
<!-- Generator: Adobe Illustrator 15.0.0, SVG Export Plug-In . SVG Version: 6.00 Build 0)  -->
<!DOCTYPE svg PUBLIC "-//W3C//DTD SVG 1.1//EN" "http://www.w3.org/Graphics/SVG/1.1/DTD/svg11.dtd">
<svg version="1.1" id="Layer_1" xmlns="http://www.w3.org/2000/svg" xmlns:xlink="http://www.w3.org/1999/xlink" x="0px" y="0px"
	 width="50.222px" height="50.002px" viewBox="401.549 264.627 50.222 50.002"
	 enable-background="new 401.549 264.627 50.222 50.002" xml:space="preserve">
<g>
	<path d="M450.503,285.474c-1.638-2.165-4.596-2.587-6.654-2.693c-2.481-0.158-4.753-0.053-7.395,0.159
		c-0.104-0.317-0.211-1.003-0.104-2.429c0.37-4.226,0.845-7.342,1.215-9.823l0.053-0.211c0.423-2.693-1.057-4.964-3.591-5.651
		c-2.377-0.634-5.492,0.211-6.654,3.01c-0.157,0.37-0.315,0.846-0.527,1.427c-1.479,3.907-4.807,12.833-10.192,16.055v-0.476
		c0-0.687-0.527-1.215-1.215-1.215h-12.674c-0.687,0-1.215,0.528-1.215,1.215v26.405c0,0.688,0.528,1.216,1.215,1.216h12.674
		c0.688,0,1.215-0.527,1.215-1.216v-0.264c4.226,1.162,14.364,3.646,21.601,3.646c3.803,0,8.556,0,9.876-5.97
		c1.056-4.698,2.429-11.67,3.326-16.477C452.087,289.277,451.771,287.059,450.503,285.474z M448.391,291.654
		c-0.897,4.806-2.271,11.67-3.327,16.372c-0.687,3.062-2.06,3.485-6.812,3.485c-6.972,0-17.006-2.535-20.966-3.591
		c-0.37-0.105-0.581-0.37-0.635-0.74v-8.449v-9.349c0-0.316,0.158-0.634,0.422-0.738c7.077-3.274,10.879-13.414,12.674-18.272
		c0.213-0.528,0.37-1.003,0.528-1.32c0.37-0.845,1.269-1.268,2.165-1.268c0.265,0,0.528,0.053,0.739,0.105
		c0.74,0.211,1.532,0.738,1.32,2.165l-0.054,0.211c-0.369,2.534-0.896,5.65-1.268,10.033c-0.211,2.482,0.159,4.173,1.057,5.07
		c0.528,0.528,1.269,0.792,2.061,0.739c2.692-0.264,4.857-0.37,7.234-0.211c2.271,0.158,3.696,0.633,4.383,1.479
		C448.656,288.22,448.814,289.647,448.391,291.654z"/>
</g>
</svg>
